<svg width="20" height="20" viewBox="0 0 20 20" fill="none" xmlns="http://www.w3.org/2000/svg">
<path d="M9.79199 1.66663C5.30511 1.66663 1.66699 5.30474 1.66699 9.79163C1.66699 14.2785 5.30511 17.9166 9.79199 17.9166C14.2789 17.9166 17.917 14.2785 17.917 9.79163C17.917 5.30474 14.2789 1.66663 9.79199 1.66663ZM9.79199 16.5383C6.06682 16.5383 3.04534 13.5168 3.04534 9.79163C3.04534 6.06646 6.06682 3.04497 9.79199 3.04497C13.5172 3.04497 16.5386 6.06646 16.5386 9.79163C16.5386 13.5168 13.5172 16.5383 9.79199 16.5383Z" fill="#D1D1D1"/>
<path d="M8.91699 6.72623C8.91699 6.96303 9.00479 7.19013 9.16107 7.35758C9.31735 7.52502 9.52931 7.61909 9.75033 7.61909C9.97134 7.61909 10.1833 7.52502 10.3396 7.35758C10.4959 7.19013 10.5837 6.96303 10.5837 6.72623C10.5837 6.48943 10.4959 6.26233 10.3396 6.09489C10.1833 5.92744 9.97134 5.83337 9.75033 5.83337C9.52931 5.83337 9.31735 5.92744 9.16107 6.09489C9.00479 6.26233 8.91699 6.48943 8.91699 6.72623ZM10.167 8.80956H9.33366C9.25727 8.80956 9.19477 8.87653 9.19477 8.95837V14.0179C9.19477 14.0997 9.25727 14.1667 9.33366 14.1667H10.167C10.2434 14.1667 10.3059 14.0997 10.3059 14.0179V8.95837C10.3059 8.87653 10.2434 8.80956 10.167 8.80956Z" fill="#D1D1D1"/>
</svg>
