<svg width="24" height="24" viewBox="0 0 24 24" fill="none" xmlns="http://www.w3.org/2000/svg">
<path d="M19.7034 2.80508C18.6282 1.73164 16.887 1.73164 15.8118 2.80508L14.8376 3.78468L4.46763 14.1501L4.44559 14.1723C4.44025 14.1777 4.44025 14.1833 4.43457 14.1833C4.42355 14.1999 4.40702 14.2162 4.39618 14.2328C4.39618 14.2383 4.39049 14.2383 4.39049 14.2438C4.37948 14.2603 4.37414 14.2713 4.36295 14.2879C4.35761 14.2934 4.35761 14.2987 4.3521 14.3044C4.34659 14.3209 4.34108 14.3319 4.3354 14.3485C4.3354 14.3538 4.33006 14.3538 4.33006 14.3595L2.02928 21.2789C1.96179 21.4758 2.0131 21.694 2.16134 21.8402C2.2655 21.943 2.406 22.0005 2.55218 22C2.61192 21.999 2.67115 21.9897 2.72831 21.9724L9.64167 19.6659C9.64701 19.6659 9.64701 19.6659 9.65269 19.6606C9.67008 19.6554 9.68678 19.648 9.70211 19.6384C9.70641 19.6379 9.7102 19.636 9.7133 19.633C9.72966 19.622 9.75169 19.6108 9.76822 19.5998C9.78458 19.589 9.80128 19.5724 9.81781 19.5614C9.82332 19.5557 9.82866 19.5557 9.82866 19.5504C9.83434 19.5449 9.84536 19.5395 9.85087 19.5284L21.195 8.18315C22.2683 7.10781 22.2683 5.36644 21.195 4.29127L19.7034 2.80508ZM9.46554 18.3723L5.63463 14.5412L15.2229 4.95197L19.0538 8.78307L9.46554 18.3723ZM5.09504 15.5595L8.44178 18.9064L3.41633 20.5798L5.09504 15.5595ZM20.419 7.41242L19.8355 8.00149L16.0044 4.17005L16.5936 3.58115C17.2381 2.93715 18.2826 2.93715 18.9273 3.58115L20.4243 5.07836C21.064 5.7258 21.0616 6.76808 20.419 7.41242Z" fill="#9E9E9E"/>
</svg>
