<svg width="24" height="24" viewBox="0 0 24 24" fill="none" xmlns="http://www.w3.org/2000/svg">
<g clip-path="url(#clip0_243_7487)">
<path d="M21.5 4.00001H16.25V3.25C16.25 2.00736 15.2427 1 14 1H11C9.75738 1 8.75002 2.00736 8.75002 3.25V4.00001H3.50001C3.08579 4.00001 2.75 4.33579 2.75 4.75002C2.75 5.16425 3.08583 5.49999 3.50001 5.49999H4.31524L5.75001 21.3182C5.78539 21.7055 6.11107 22.0016 6.50003 22H18.5C18.889 22.0016 19.2146 21.7056 19.25 21.3182L20.6848 5.49999H21.5C21.9143 5.49999 22.2501 5.16421 22.2501 4.74998C22.2501 4.33575 21.9142 4.00001 21.5 4.00001ZM10.25 3.25C10.25 2.83577 10.5858 2.49998 11 2.49998H14C14.4143 2.49998 14.75 2.83577 14.75 3.25V4.00001H10.2501V3.25H10.25ZM17.8153 20.4999H7.18478L5.82503 5.49999H9.50004H19.1788L17.8153 20.4999Z" fill="#E3001B"/>
<path d="M10.2502 18.1999C10.2501 18.1989 10.2501 18.1978 10.25 18.1968L9.49995 7.69684C9.47055 7.28261 9.11091 6.97069 8.69672 7.00009C8.28249 7.02949 7.97057 7.38914 7.99997 7.80332L8.74998 18.3033C8.77798 18.6966 9.10572 19.0011 9.5 19.0001H9.55401C9.96723 18.9714 10.2789 18.6131 10.2502 18.1999Z" fill="#E3001B"/>
<path d="M12.5 7C12.0858 7 11.75 7.33579 11.75 7.75001V18.25C11.75 18.6642 12.0858 19 12.5 19C12.9142 19 13.25 18.6642 13.25 18.25V7.75001C13.25 7.33579 12.9142 7 12.5 7Z" fill="#E3001B"/>
<path d="M16.3033 7.00009C15.8891 6.97069 15.5295 7.28261 15.5001 7.69684L14.7501 18.1968C14.7197 18.6099 15.03 18.9694 15.4431 18.9998C15.4443 18.9999 15.4456 19 15.4468 19H15.5001C15.8944 19.0011 16.2221 18.6966 16.2501 18.3033L17.0001 7.80332C17.0295 7.38914 16.7176 7.02953 16.3033 7.00009Z" fill="#E3001B"/>
</g>
<defs>
<clipPath id="clip0_243_7487">
<rect width="21" height="21" fill="white" transform="translate(2 1)"/>
</clipPath>
</defs>
</svg>
