<svg width="24" height="24" viewBox="0 0 24 24" fill="none" xmlns="http://www.w3.org/2000/svg">
<path d="M2.25 12C2.25 13.9284 2.82183 15.8134 3.89317 17.4168C4.96451 19.0202 6.48726 20.2699 8.26884 21.0078C10.0504 21.7458 12.0108 21.9389 13.9021 21.5627C15.7934 21.1864 17.5307 20.2578 18.8943 18.8943C20.2579 17.5307 21.1865 15.7934 21.5627 13.9021C21.9389 12.0108 21.7458 10.0504 21.0078 8.26883C20.2699 6.48725 19.0202 4.96451 17.4168 3.89317C15.8134 2.82182 13.9284 2.25 12 2.25C9.41566 2.25495 6.93859 3.28377 5.11118 5.11118C3.28378 6.93859 2.25496 9.41566 2.25 12ZM20.25 12C20.25 13.6317 19.7661 15.2267 18.8596 16.5834C17.9531 17.9402 16.6646 18.9976 15.1571 19.622C13.6496 20.2464 11.9908 20.4098 10.3905 20.0915C8.79016 19.7731 7.32015 18.9874 6.16637 17.8336C5.01259 16.6798 4.22685 15.2098 3.90852 13.6095C3.59019 12.0091 3.75357 10.3503 4.37799 8.84286C5.00242 7.33537 6.05984 6.04689 7.41654 5.14037C8.77325 4.23385 10.3683 3.75 12 3.75C14.1873 3.75248 16.2843 4.62247 17.8309 6.1691C19.3775 7.71574 20.2475 9.81272 20.25 12ZM12.0375 8.28749C12.1781 8.14724 12.3686 8.06847 12.5672 8.06847C12.7658 8.06847 12.9563 8.14724 13.0969 8.28749L16.2844 11.4656C16.423 11.609 16.5005 11.8006 16.5005 12C16.5005 12.1994 16.423 12.391 16.2844 12.5344L13.0969 15.7125C12.9542 15.8418 12.7673 15.9112 12.5748 15.9065C12.3824 15.9017 12.1991 15.8232 12.063 15.687C11.9268 15.5509 11.8483 15.3676 11.8435 15.1752C11.8388 14.9827 11.9082 14.7958 12.0375 14.6531L13.9406 12.75L8.25 12.75C8.05109 12.75 7.86032 12.671 7.71967 12.5303C7.57902 12.3897 7.5 12.1989 7.5 12C7.5 11.8011 7.57902 11.6103 7.71967 11.4697C7.86032 11.329 8.05109 11.25 8.25 11.25L13.9406 11.25L12.0375 9.34687C11.8972 9.20627 11.8185 9.01578 11.8185 8.81718C11.8185 8.61859 11.8972 8.42809 12.0375 8.28749Z" fill="#E3001B"/>
</svg>
