<svg width="20" height="20" viewBox="0 0 20 20" fill="none" xmlns="http://www.w3.org/2000/svg">
<path d="M13.8906 7.69531C14.0045 7.81556 14.0659 7.97605 14.0615 8.14157C14.0571 8.30708 13.9872 8.46409 13.8672 8.57813L9.28907 12.9531C9.17071 13.0645 9.01406 13.126 8.85157 13.125C8.69147 13.1256 8.53739 13.064 8.42188 12.9531L6.13282 10.7656C6.06933 10.7102 6.01769 10.6426 5.98102 10.5667C5.94434 10.4909 5.92338 10.4084 5.9194 10.3242C5.91542 10.24 5.92849 10.1559 5.95784 10.077C5.98719 9.99798 6.03221 9.92575 6.09019 9.86461C6.14816 9.80347 6.2179 9.75469 6.29522 9.72119C6.37253 9.68769 6.45582 9.67017 6.54007 9.66968C6.62433 9.66919 6.70781 9.68574 6.78551 9.71834C6.86321 9.75094 6.93351 9.79891 6.99219 9.85937L8.85157 11.6328L13.0078 7.67188C13.1281 7.55805 13.2886 7.49659 13.4541 7.50098C13.6196 7.50537 13.7766 7.57527 13.8906 7.69531ZM18.125 10C18.125 11.607 17.6485 13.1779 16.7557 14.514C15.8629 15.8502 14.594 16.8916 13.1093 17.5065C11.6247 18.1215 9.99099 18.2824 8.4149 17.9689C6.8388 17.6554 5.39106 16.8815 4.25476 15.7452C3.11846 14.6089 2.34463 13.1612 2.03112 11.5851C1.71762 10.009 1.87852 8.37535 2.49348 6.8907C3.10844 5.40605 4.14985 4.1371 5.486 3.24431C6.82214 2.35152 8.39303 1.875 10 1.875C12.1536 1.87913 14.2178 2.73648 15.7407 4.25932C17.2635 5.78216 18.1209 7.84638 18.125 10ZM16.875 10C16.875 8.64025 16.4718 7.31104 15.7164 6.18045C14.9609 5.04987 13.8872 4.16868 12.631 3.64833C11.3747 3.12798 9.99238 2.99183 8.65876 3.2571C7.32514 3.52237 6.10013 4.17716 5.13864 5.13864C4.17716 6.10013 3.52238 7.32513 3.2571 8.65875C2.99183 9.99237 3.12798 11.3747 3.64833 12.6309C4.16868 13.8872 5.04987 14.9609 6.18046 15.7164C7.31105 16.4718 8.64026 16.875 10 16.875C11.8227 16.8729 13.5702 16.1479 14.8591 14.8591C16.1479 13.5702 16.8729 11.8227 16.875 10Z" fill="#025392"/>
</svg>
