<svg width="24" height="24" viewBox="0 0 24 24" fill="none" xmlns="http://www.w3.org/2000/svg">
<path d="M20.2609 7.28571H17.5043L15.913 5.57143H10.6957V7.28571H15.1478L16.7391 9H20.2609V19.2857H6.34783V11.5714H4.6087V19.2857C4.6087 20.2286 5.3913 21 6.34783 21H20.2609C21.2174 21 22 20.2286 22 19.2857V9C22 8.05714 21.2174 7.28571 20.2609 7.28571ZM8.95652 14.1429C8.95652 16.5086 10.9043 18.4286 13.3043 18.4286C15.7043 18.4286 17.6522 16.5086 17.6522 14.1429C17.6522 11.7771 15.7043 9.85714 13.3043 9.85714C10.9043 9.85714 8.95652 11.7771 8.95652 14.1429ZM13.3043 11.5714C14.7391 11.5714 15.913 12.7286 15.913 14.1429C15.913 15.5571 14.7391 16.7143 13.3043 16.7143C11.8696 16.7143 10.6957 15.5571 10.6957 14.1429C10.6957 12.7286 11.8696 11.5714 13.3043 11.5714ZM6.34783 7.28571H8.95652V5.57143H6.34783V3H4.6087V5.57143H2V7.28571H4.6087V9.85714H6.34783V7.28571Z" fill="#9E9E9E"/>
</svg>
